<svg width="64" height="64" viewBox="0 0 64 64" fill="none" xmlns="http://www.w3.org/2000/svg">
<rect width="64" height="64" rx="12" fill="#FBBF24"/>
<mask id="mask0_283_23" style="mask-type:luminance" maskUnits="userSpaceOnUse" x="10" y="12" width="43" height="41">
<path d="M52.9151 12H10V53H52.9151V12Z" fill="white"/>
</mask>
<g mask="url(#mask0_283_23)">
<path d="M10.8884 38.0336C11.9405 39.0857 14.0649 39.3487 15.7038 37.8718C16.25 37.3862 17.3831 36.1722 19.5479 34.0074C29.8869 23.5268 36.7052 16.6478 38.1621 17.9629C39.3354 18.9947 35.7543 24.0529 32.3553 28.7469C25.9819 37.6289 20.9035 43.7796 24.6668 47.5429C27.6815 50.5575 32.3755 47.5227 39.5985 41.1898C43.6653 37.6087 46.7204 34.7154 47.6106 35.626C48.2782 36.2734 47.2465 37.9932 45.729 40.6234C43.7663 43.982 41.3183 47.5835 43.6653 49.9303C45.2839 51.5287 48.42 50.8409 52.2843 47.0574C52.9723 46.3694 53.134 45.6006 52.5878 45.0543C52.0617 44.5484 51.3335 44.6294 50.7872 45.1353C47.9747 47.8868 46.1336 48.7568 45.6683 48.2713C45.122 47.7452 46.1134 45.9445 48.1771 42.3229C50.7872 37.7503 52.1831 34.8774 49.9778 32.7327C47.0239 29.8596 43.5236 32.935 37.0492 38.6203C30.9592 43.9819 29.1787 44.8519 28.4099 44.1033C27.3781 43.0514 28.9561 41.1898 35.7745 31.6603C42.1477 22.7378 45.8504 17.1738 42.3906 13.8354C37.6764 9.24263 31.6067 12.8643 14.9754 29.3133C12.77 31.4984 11.5561 32.6517 11.0705 33.1778C9.51261 34.8976 9.83633 36.9815 10.8884 38.0336Z" fill="white"/>
</g>
</svg>
